<?xml version="1.0" encoding="UTF-8"?>
<svg xmlns="http://www.w3.org/2000/svg" xmlns:xlink="http://www.w3.org/1999/xlink" width="15px" height="15px" viewBox="0 0 15 15" version="1.1">
<g id="surface1">
<path style=" stroke:none;fill-rule:nonzero;fill:rgb(0%,0%,0%);fill-opacity:1;" d="M 7.722656 4.46875 C 7.691406 4.4375 7.65625 4.414062 7.621094 4.398438 C 7.582031 4.382812 7.542969 4.378906 7.507812 4.375 C 7.503906 4.375 7.503906 4.375 7.5 4.375 C 7.5 4.375 7.496094 4.375 7.496094 4.375 C 7.457031 4.375 7.417969 4.382812 7.378906 4.398438 C 7.34375 4.414062 7.308594 4.4375 7.277344 4.46875 L 4.464844 7.277344 C 4.347656 7.398438 4.347656 7.59375 4.464844 7.714844 C 4.585938 7.835938 4.785156 7.839844 4.910156 7.722656 L 7.1875 5.441406 L 7.1875 10.3125 C 7.1875 10.484375 7.328125 10.625 7.5 10.625 C 7.671875 10.625 7.8125 10.484375 7.8125 10.3125 L 7.8125 5.441406 L 10.089844 7.722656 C 10.148438 7.78125 10.230469 7.8125 10.3125 7.8125 C 10.394531 7.8125 10.476562 7.78125 10.535156 7.722656 C 10.65625 7.597656 10.65625 7.402344 10.535156 7.277344 Z M 7.5 1.25 C 4.046875 1.25 1.25 4.046875 1.25 7.5 C 1.25 10.953125 4.046875 13.75 7.5 13.75 C 10.949219 13.746094 13.746094 10.949219 13.75 7.5 C 13.75 4.046875 10.953125 1.25 7.5 1.25 Z M 7.5 13.125 C 4.394531 13.125 1.875 10.605469 1.875 7.5 C 1.875 4.394531 4.394531 1.875 7.5 1.875 C 10.605469 1.878906 13.121094 4.394531 13.125 7.5 C 13.125 10.605469 10.605469 13.125 7.5 13.125 Z M 7.5 13.125 "/>
</g>
</svg>
