<?xml version="1.0" encoding="UTF-8"?>
<svg xmlns="http://www.w3.org/2000/svg" xmlns:xlink="http://www.w3.org/1999/xlink" width="30px" height="30px" viewBox="0 0 30 30" version="1.1">
<g id="surface1">
<path style=" stroke:none;fill-rule:nonzero;fill:rgb(89.411765%,89.411765%,89.411765%);fill-opacity:1;" d="M 21.75 0 L 3.25 0 L 3.25 30 L 26.75 30 L 26.75 5 Z M 21.75 0 "/>
<path style=" stroke:none;fill-rule:nonzero;fill:rgb(0%,47.45098%,20.392157%);fill-opacity:1;" d="M 22.523438 2.5 L 3.25 2.5 L 3.25 0 L 21.75 0 Z M 22.523438 2.5 "/>
<path style=" stroke:none;fill-rule:nonzero;fill:rgb(64.313725%,66.27451%,67.843137%);fill-opacity:1;" d="M 11.367188 22.558594 C 11.070312 22.558594 10.839844 22.679688 10.675781 22.921875 C 10.511719 23.164062 10.425781 23.496094 10.425781 23.921875 C 10.425781 24.804688 10.761719 25.246094 11.4375 25.246094 C 11.636719 25.246094 11.835938 25.21875 12.027344 25.164062 C 12.214844 25.105469 12.40625 25.039062 12.601562 24.957031 L 12.601562 26.007812 C 12.21875 26.175781 11.785156 26.261719 11.300781 26.261719 C 10.609375 26.261719 10.078125 26.058594 9.707031 25.660156 C 9.335938 25.257812 9.152344 24.675781 9.152344 23.914062 C 9.152344 23.441406 9.242188 23.023438 9.421875 22.664062 C 9.601562 22.300781 9.859375 22.023438 10.195312 21.832031 C 10.53125 21.636719 10.925781 21.542969 11.378906 21.542969 C 11.875 21.542969 12.347656 21.648438 12.800781 21.863281 L 12.421875 22.839844 C 12.253906 22.761719 12.082031 22.695312 11.914062 22.640625 C 11.742188 22.585938 11.5625 22.558594 11.367188 22.558594 Z M 11.367188 22.558594 "/>
<path style=" stroke:none;fill-rule:nonzero;fill:rgb(64.313725%,66.27451%,67.843137%);fill-opacity:1;" d="M 16.496094 24.804688 C 16.496094 25.089844 16.425781 25.34375 16.28125 25.5625 C 16.136719 25.785156 15.929688 25.957031 15.65625 26.078125 C 15.382812 26.199219 15.066406 26.261719 14.699219 26.261719 C 14.394531 26.261719 14.136719 26.238281 13.929688 26.195312 C 13.722656 26.152344 13.507812 26.078125 13.28125 25.972656 L 13.28125 24.867188 C 13.519531 24.988281 13.765625 25.082031 14.019531 25.152344 C 14.277344 25.21875 14.511719 25.253906 14.722656 25.253906 C 14.90625 25.253906 15.042969 25.222656 15.128906 25.15625 C 15.214844 25.09375 15.257812 25.011719 15.257812 24.910156 C 15.257812 24.847656 15.238281 24.792969 15.207031 24.746094 C 15.171875 24.699219 15.117188 24.652344 15.039062 24.601562 C 14.960938 24.554688 14.757812 24.457031 14.429688 24.308594 C 14.128906 24.171875 13.90625 24.039062 13.753906 23.914062 C 13.605469 23.785156 13.492188 23.636719 13.421875 23.472656 C 13.347656 23.308594 13.3125 23.113281 13.3125 22.886719 C 13.3125 22.460938 13.46875 22.132812 13.773438 21.894531 C 14.082031 21.660156 14.503906 21.542969 15.042969 21.542969 C 15.519531 21.542969 16.003906 21.652344 16.496094 21.871094 L 16.117188 22.828125 C 15.6875 22.632812 15.316406 22.535156 15.007812 22.535156 C 14.84375 22.535156 14.726562 22.5625 14.65625 22.617188 C 14.582031 22.675781 14.542969 22.746094 14.542969 22.828125 C 14.542969 22.917969 14.589844 23 14.683594 23.070312 C 14.777344 23.140625 15.03125 23.273438 15.441406 23.460938 C 15.839844 23.636719 16.113281 23.828125 16.265625 24.035156 C 16.421875 24.238281 16.496094 24.496094 16.496094 24.804688 Z M 16.496094 24.804688 "/>
<path style=" stroke:none;fill-rule:nonzero;fill:rgb(64.313725%,66.27451%,67.843137%);fill-opacity:1;" d="M 19.785156 21.605469 L 21.175781 21.605469 L 19.667969 26.199219 L 18.210938 26.199219 L 16.710938 21.605469 L 18.105469 21.605469 L 18.730469 23.933594 C 18.859375 24.453125 18.933594 24.8125 18.945312 25.015625 C 18.960938 24.867188 18.988281 24.683594 19.03125 24.464844 C 19.078125 24.246094 19.113281 24.074219 19.148438 23.945312 Z M 19.785156 21.605469 "/>
<path style=" stroke:none;fill-rule:nonzero;fill:rgb(81.960784%,82.745098%,82.745098%);fill-opacity:1;" d="M 21.75 5 L 26.75 5 L 21.75 0 Z M 21.75 5 "/>
<path style=" stroke:none;fill-rule:nonzero;fill:rgb(0%,47.45098%,20.392157%);fill-opacity:1;" d="M 13.355469 7.949219 L 16.644531 7.949219 L 16.644531 9.476562 L 13.355469 9.476562 Z M 13.355469 7.949219 "/>
<path style=" stroke:none;fill-rule:nonzero;fill:rgb(0%,47.45098%,20.392157%);fill-opacity:1;" d="M 17.375 7.949219 L 20.667969 7.949219 L 20.667969 9.476562 L 17.375 9.476562 Z M 17.375 7.949219 "/>
<path style=" stroke:none;fill-rule:nonzero;fill:rgb(0%,47.45098%,20.392157%);fill-opacity:1;" d="M 13.355469 10.15625 L 16.644531 10.15625 L 16.644531 11.683594 L 13.355469 11.683594 Z M 13.355469 10.15625 "/>
<path style=" stroke:none;fill-rule:nonzero;fill:rgb(0%,47.45098%,20.392157%);fill-opacity:1;" d="M 17.375 10.15625 L 20.667969 10.15625 L 20.667969 11.683594 L 17.375 11.683594 Z M 17.375 10.15625 "/>
<path style=" stroke:none;fill-rule:nonzero;fill:rgb(0%,47.45098%,20.392157%);fill-opacity:1;" d="M 13.355469 12.367188 L 16.644531 12.367188 L 16.644531 13.890625 L 13.355469 13.890625 Z M 13.355469 12.367188 "/>
<path style=" stroke:none;fill-rule:nonzero;fill:rgb(0%,47.45098%,20.392157%);fill-opacity:1;" d="M 17.375 12.367188 L 20.667969 12.367188 L 20.667969 13.890625 L 17.375 13.890625 Z M 17.375 12.367188 "/>
<path style=" stroke:none;fill-rule:nonzero;fill:rgb(0%,47.45098%,20.392157%);fill-opacity:1;" d="M 9.332031 12.367188 L 12.625 12.367188 L 12.625 13.890625 L 9.332031 13.890625 Z M 9.332031 12.367188 "/>
<path style=" stroke:none;fill-rule:nonzero;fill:rgb(0%,47.45098%,20.392157%);fill-opacity:1;" d="M 13.355469 14.574219 L 16.644531 14.574219 L 16.644531 16.101562 L 13.355469 16.101562 Z M 13.355469 14.574219 "/>
<path style=" stroke:none;fill-rule:nonzero;fill:rgb(0%,47.45098%,20.392157%);fill-opacity:1;" d="M 17.375 14.574219 L 20.667969 14.574219 L 20.667969 16.101562 L 17.375 16.101562 Z M 17.375 14.574219 "/>
<path style=" stroke:none;fill-rule:nonzero;fill:rgb(0%,47.45098%,20.392157%);fill-opacity:1;" d="M 9.332031 14.574219 L 12.625 14.574219 L 12.625 16.101562 L 9.332031 16.101562 Z M 9.332031 14.574219 "/>
<path style=" stroke:none;fill-rule:nonzero;fill:rgb(0%,47.45098%,20.392157%);fill-opacity:1;" d="M 12.574219 11.492188 L 11.582031 11.492188 L 10.960938 10.5 L 10.347656 11.492188 L 9.378906 11.492188 L 10.433594 9.867188 L 9.441406 8.316406 L 10.390625 8.316406 L 10.964844 9.296875 L 11.519531 8.316406 L 12.5 8.316406 L 11.492188 9.933594 Z M 12.574219 11.492188 "/>
</g>
</svg>
