<?xml version="1.0" encoding="UTF-8"?>
<svg xmlns="http://www.w3.org/2000/svg" xmlns:xlink="http://www.w3.org/1999/xlink" width="30px" height="30px" viewBox="0 0 30 30" version="1.1">
<g id="surface1">
<path style=" stroke:none;fill-rule:evenodd;fill:rgb(11.764706%,44.313725%,27.058824%);fill-opacity:1;" d="M 16.3125 6.175781 L 16.3125 23.628906 L 5.9375 21.828125 L 5.9375 7.976562 Z M 16.804688 8.191406 L 23.695312 8.191406 C 24.074219 8.191406 24.148438 8.265625 24.148438 8.644531 L 24.148438 21.15625 C 24.148438 21.535156 24.074219 21.609375 23.695312 21.609375 L 16.804688 21.609375 L 16.804688 20.429688 L 19.433594 20.429688 L 19.433594 18.621094 L 16.804688 18.621094 L 16.804688 18.074219 L 19.433594 18.074219 L 19.433594 16.261719 L 16.804688 16.261719 L 16.804688 15.71875 L 19.433594 15.71875 L 19.433594 13.902344 L 16.804688 13.902344 L 16.804688 13.359375 L 19.433594 13.359375 L 19.433594 11.546875 L 16.804688 11.546875 L 16.804688 11.003906 L 19.433594 11.003906 L 19.433594 9.191406 L 16.804688 9.191406 Z M 3.539062 26.507812 L 26.445312 26.507812 L 26.449219 3.597656 L 3.539062 3.597656 Z M 3.539062 26.507812 "/>
<path style=" stroke:none;fill-rule:evenodd;fill:rgb(11.764706%,44.313725%,27.058824%);fill-opacity:1;" d="M 12.117188 11.664062 L 11.171875 13.824219 L 10.4375 11.792969 L 9.257812 11.847656 L 10.429688 14.804688 L 9.109375 17.703125 L 10.269531 17.789062 L 11.203125 15.707031 L 12.070312 17.910156 L 13.40625 17.980469 L 11.957031 14.792969 L 13.34375 11.574219 Z M 19.980469 20.429688 L 22.972656 20.429688 L 22.972656 18.621094 L 19.980469 18.621094 Z M 19.980469 18.074219 L 22.972656 18.074219 L 22.972656 16.261719 L 19.980469 16.261719 Z M 19.980469 15.71875 L 22.972656 15.71875 L 22.972656 13.902344 L 19.980469 13.902344 Z M 19.980469 11.003906 L 22.972656 11.003906 L 22.972656 9.191406 L 19.980469 9.191406 Z M 19.980469 13.359375 L 22.972656 13.359375 L 22.972656 11.546875 L 19.980469 11.546875 Z M 19.980469 13.359375 "/>
</g>
</svg>
