<?xml version="1.0" encoding="UTF-8"?>
<svg xmlns="http://www.w3.org/2000/svg" xmlns:xlink="http://www.w3.org/1999/xlink" width="30px" height="30px" viewBox="0 0 30 30" version="1.1">
<g id="surface1">
<path style=" stroke:none;fill-rule:nonzero;fill:rgb(0%,0%,0%);fill-opacity:1;" d="M 8.75 12.5 C 8.058594 12.5 7.5 13.058594 7.5 13.75 C 7.5 14.441406 8.058594 15 8.75 15 C 9.441406 15 10 14.441406 10 13.75 C 10 13.058594 9.441406 12.5 8.75 12.5 Z M 23.75 7.5 L 22.5 7.5 L 22.5 3.75 C 22.5 3.058594 21.941406 2.5 21.25 2.5 L 8.75 2.5 C 8.058594 2.5 7.5 3.058594 7.5 3.75 L 7.5 7.5 L 6.25 7.5 C 4.179688 7.5 2.5 9.179688 2.5 11.25 L 2.5 18.75 C 2.5 20.820312 4.179688 22.5 6.25 22.5 L 7.5 22.5 L 7.5 26.25 C 7.5 26.941406 8.058594 27.5 8.75 27.5 L 21.25 27.5 C 21.941406 27.5 22.5 26.941406 22.5 26.25 L 22.5 22.5 L 23.75 22.5 C 25.820312 22.5 27.5 20.820312 27.5 18.75 L 27.5 11.25 C 27.5 9.179688 25.820312 7.5 23.75 7.5 Z M 10 5 L 20 5 L 20 7.5 L 10 7.5 Z M 20 25 L 10 25 L 10 20 L 20 20 Z M 25 18.75 C 25 19.441406 24.441406 20 23.75 20 L 22.5 20 L 22.5 18.75 C 22.5 18.058594 21.941406 17.5 21.25 17.5 L 8.75 17.5 C 8.058594 17.5 7.5 18.058594 7.5 18.75 L 7.5 20 L 6.25 20 C 5.558594 20 5 19.441406 5 18.75 L 5 11.25 C 5 10.558594 5.558594 10 6.25 10 L 23.75 10 C 24.441406 10 25 10.558594 25 11.25 Z M 25 18.75 "/>
</g>
</svg>
