<?xml version="1.0" encoding="UTF-8"?>
<svg
  xmlns="http://www.w3.org/2000/svg"
  xmlns:xlink="http://www.w3.org/1999/xlink"
  width="30px"
  height="30px"
  viewBox="0 0 30 30"
  version="1.1"
>
  <g id="surface1">
    <path
      style=" stroke:none;fill-rule:nonzero;fill:rgb(0%,0%,0%);fill-opacity:1;"
      d="M 16.25 17.5 L 11.25 17.5 C 10.558594 17.5 10 18.058594 10 18.75 C 10 19.441406 10.558594 20 11.25 20 L 16.25 20 C 16.941406 20 17.5 19.441406 17.5 18.75 C 17.5 18.058594 16.941406 17.5 16.25 17.5 Z M 21.25 5 L 19.773438 5 C 19.246094 3.503906 17.835938 2.503906 16.25 2.5 L 13.75 2.5 C 12.164062 2.503906 10.753906 3.503906 10.226562 5 L 8.75 5 C 6.679688 5 5 6.679688 5 8.75 L 5 23.75 C 5 25.820312 6.679688 27.5 8.75 27.5 L 21.25 27.5 C 23.320312 27.5 25 25.820312 25 23.75 L 25 8.75 C 25 6.679688 23.320312 5 21.25 5 Z M 12.5 6.25 C 12.5 5.558594 13.058594 5 13.75 5 L 16.25 5 C 16.941406 5 17.5 5.558594 17.5 6.25 L 17.5 7.5 L 12.5 7.5 Z M 22.5 23.75 C 22.5 24.441406 21.941406 25 21.25 25 L 8.75 25 C 8.058594 25 7.5 24.441406 7.5 23.75 L 7.5 8.75 C 7.5 8.058594 8.058594 7.5 8.75 7.5 L 10 7.5 L 10 8.75 C 10 9.441406 10.558594 10 11.25 10 L 18.75 10 C 19.441406 10 20 9.441406 20 8.75 L 20 7.5 L 21.25 7.5 C 21.941406 7.5 22.5 8.058594 22.5 8.75 Z M 18.75 12.5 L 11.25 12.5 C 10.558594 12.5 10 13.058594 10 13.75 C 10 14.441406 10.558594 15 11.25 15 L 18.75 15 C 19.441406 15 20 14.441406 20 13.75 C 20 13.058594 19.441406 12.5 18.75 12.5 Z M 18.75 12.5 "
    />
  </g>
</svg>
