<?xml version="1.0" encoding="UTF-8"?>
<svg xmlns="http://www.w3.org/2000/svg" xmlns:xlink="http://www.w3.org/1999/xlink" width="30px" height="30px" viewBox="0 0 30 30" version="1.1">
<g id="surface1">
<path style=" stroke:none;fill-rule:nonzero;fill:rgb(92.941176%,93.333333%,93.72549%);fill-opacity:1;" d="M 25.039062 4.757812 L 25.039062 25.242188 C 25.039062 25.761719 24.621094 26.179688 24.101562 26.179688 L 9.441406 26.179688 C 8.921875 26.179688 8.503906 25.761719 8.503906 25.242188 L 8.503906 10.824219 L 13.660156 3.820312 L 24.101562 3.820312 C 24.621094 3.820312 25.039062 4.238281 25.039062 4.757812 Z M 25.039062 4.757812 "/>
<path style=" stroke:none;fill-rule:nonzero;fill:rgb(81.176471%,81.568627%,81.960784%);fill-opacity:1;" d="M 13.660156 3.828125 L 13.660156 9.84375 C 13.660156 10.363281 13.238281 10.78125 12.722656 10.78125 L 8.527344 10.78125 Z M 13.660156 3.828125 "/>
<path style=" stroke:none;fill-rule:nonzero;fill:rgb(100%,21.568627%,9.019608%);fill-opacity:1;" d="M 5.898438 16.625 L 18.703125 16.625 C 19.222656 16.625 19.640625 17.046875 19.640625 17.5625 L 19.640625 22.269531 C 19.640625 22.789062 19.222656 23.207031 18.703125 23.207031 L 5.898438 23.207031 C 5.378906 23.207031 4.960938 22.789062 4.960938 22.269531 L 4.960938 17.5625 C 4.960938 17.046875 5.378906 16.625 5.898438 16.625 Z M 5.898438 16.625 "/>
<path style=" stroke:none;fill-rule:nonzero;fill:rgb(92.941176%,93.333333%,93.72549%);fill-opacity:1;" d="M 9.722656 20.296875 L 9.722656 21.308594 L 8.90625 21.308594 L 8.90625 18.53125 L 10.03125 18.53125 C 10.25 18.519531 10.46875 18.554688 10.671875 18.632812 C 10.820312 18.699219 10.941406 18.804688 11.023438 18.941406 C 11.109375 19.082031 11.152344 19.246094 11.152344 19.410156 C 11.164062 19.652344 11.066406 19.886719 10.890625 20.054688 C 10.695312 20.222656 10.441406 20.308594 10.179688 20.296875 Z M 9.722656 19.703125 L 9.992188 19.703125 C 10.234375 19.703125 10.351562 19.609375 10.351562 19.425781 C 10.351562 19.242188 10.242188 19.164062 10.023438 19.164062 L 9.722656 19.164062 Z M 11.457031 21.308594 L 11.457031 18.53125 L 12.484375 18.53125 C 12.863281 18.5 13.234375 18.652344 13.480469 18.941406 C 13.703125 19.214844 13.820312 19.554688 13.8125 19.902344 C 13.832031 20.273438 13.707031 20.636719 13.457031 20.914062 C 13.21875 21.179688 12.875 21.324219 12.519531 21.308594 Z M 12.273438 20.667969 L 12.484375 20.667969 C 12.625 20.664062 12.757812 20.585938 12.824219 20.460938 C 12.921875 20.292969 12.96875 20.097656 12.960938 19.902344 C 12.964844 19.722656 12.921875 19.539062 12.839844 19.378906 C 12.773438 19.242188 12.632812 19.160156 12.484375 19.164062 L 12.273438 19.164062 Z M 15.816406 20.269531 L 14.953125 20.269531 L 14.953125 21.308594 L 14.160156 21.308594 L 14.160156 18.53125 L 16.078125 18.53125 L 16.078125 19.191406 L 14.953125 19.191406 L 14.953125 19.660156 L 15.816406 19.660156 Z M 15.816406 20.269531 "/>
</g>
</svg>
